<svg xmlns="http://www.w3.org/2000/svg" viewBox="0 0 64 64">
  <rect width="64" height="64" rx="14" fill="#0f172a"/>
  <path d="M20 22h26v24a9 9 0 0 1-9 9h-8a9 9 0 0 1-9-9V22z" fill="#f59e0b"/>
  <path d="M46 27h4a8 8 0 0 1 0 16h-4v-6h4a2 2 0 0 0 0-4h-4v-6z" fill="#f8fafc"/>
  <path d="M20 22h26v8H20z" fill="#fde68a"/>
  <path d="M24 15c0-4 4-7 8-5 2-4 9-3 10 2 5 0 8 4 7 8-1 3-4 5-8 5H25c-5 0-8-5-5-10z" fill="#fff7ed"/>
  <path d="M27 33v13M34 33v13M41 33v13" stroke="#b45309" stroke-width="4" stroke-linecap="round"/>
</svg>
